<svg width="1024" height="1024" viewBox="0 0 1024 1024" fill="none" xmlns="http://www.w3.org/2000/svg">
<path fill-rule="evenodd" clip-rule="evenodd" d="M0 512V1024H512H1024V512V0H512H0V512Z" fill="#010824"/>
<path fill-rule="evenodd" clip-rule="evenodd" d="M0 512V1024H512H1024V512V0H512H0V512ZM854.295 154.5C854.46 175.498 853.359 183.539 847.865 201.46C836.009 240.131 806.588 269.762 767 282.904C751.919 287.911 741.364 289.793 712.5 292.625L705.5 293.311L711.206 295.102C724.635 299.316 735.083 300.273 761 299.666C786.311 299.074 793.739 298.192 811.608 293.657C831.454 288.621 850.696 279.39 867.209 266.983C877.752 259.062 896.843 240.232 902.929 231.752C904.803 229.14 906.491 227.158 906.68 227.347C907.428 228.095 897.933 248.439 893.565 255.447C865.992 299.687 818.155 326.131 759.5 329.56C747.861 330.24 720.595 328.152 707.5 325.578C703.65 324.821 700.414 324.279 700.309 324.375C699.838 324.803 712.71 334.506 720.213 339.377C729.979 345.717 738.047 349.851 747 353.102C750.575 354.4 752.75 355.609 751.833 355.788C750.917 355.968 743.225 354.963 734.74 353.555C726.255 352.148 714.405 350.499 708.406 349.89C698.114 348.846 684.6 349.066 683.369 350.298C683.061 350.606 685.059 353.562 687.81 356.867C703.831 376.118 715.195 399.868 721.247 426.75C722.738 433.369 722.085 435.034 719.987 429.968C717.656 424.341 718.077 427.515 720.924 437.036C728.694 463.024 734.548 481.495 741.352 501.499C745.468 513.598 748.661 523.672 748.449 523.885C747.704 524.629 728.391 484.413 725.077 475.218C723.237 470.112 721.632 466.062 721.51 466.218C721.147 466.681 723.88 486.848 725.546 496C727.945 509.178 733.154 528.163 742.011 556C758.068 606.466 763.3 627.057 766.407 652C770.776 687.086 769.105 716.752 760.89 749.953C744.993 814.198 699.687 864.536 639.658 884.652C632.521 887.043 626.471 889 626.214 889C625.958 889 629.517 886.452 634.124 883.338C654.566 869.521 669.267 855.225 680.745 838C694.824 816.873 702.365 793.019 703.507 766L704.035 753.5L701.107 764.5C699.496 770.55 697.273 777.793 696.165 780.595C681.82 816.891 655.086 849.682 621.586 872.072C609.631 880.062 585.194 891.989 571.788 896.377C546.572 904.63 527.01 907.477 496 907.409C454.907 907.319 427.754 902.448 365.5 884.001C293.79 862.752 260.078 856.696 213 856.605C185.369 856.551 170.186 857.939 147.151 862.624C140.359 864.005 134.564 864.898 134.274 864.607C132.884 863.217 154.452 824.941 167.688 805.308C185.96 778.205 202.52 758.456 230.481 730.425C256.259 704.582 268.037 694.69 292.5 678.334C318.904 660.681 339.754 650.836 382.489 635.841C422.914 621.657 439.966 614.245 458.219 602.924C480.207 589.287 495.322 573.729 504.744 555.033L509.011 546.567L508.429 554.533C507.339 569.474 504.392 579.666 498.437 589.1C497.097 591.223 496 593.291 496 593.696C496 595.415 507.439 583.016 510.711 577.75C512.677 574.587 514.375 572 514.486 572C514.597 572 513.654 575.871 512.39 580.602C509.814 590.251 505.698 599.62 500.914 606.73L497.704 611.5L501.979 607.5C518.624 591.927 525.464 565.814 519.966 538.832C516.274 520.716 509.962 508.632 498.115 497C483.048 482.207 465.429 472.471 443.67 466.916L435.728 464.888L428.614 467.042C421.554 469.179 393.44 479.951 384.934 483.777C377.894 486.944 359.067 493.671 352.437 495.388C346.048 497.042 326.625 500.99 326.393 500.681C326.318 500.581 328.112 497.35 330.378 493.5C335.635 484.572 347.377 472.65 357 466.47C361.125 463.821 373.5 456.725 384.5 450.702C413.164 435.005 433.677 421.069 438.191 414.223C440.063 411.384 440.572 405.45 439.137 403.187C438.222 401.745 433.691 401.329 430.369 402.383C428.71 402.909 428.115 402.559 427.638 400.778C426.603 396.915 426.914 369.171 428 368.5C428.597 368.131 429.018 369.416 429.044 371.691C429.068 373.786 429.666 378.2 430.373 381.5L431.659 387.5L432.953 380C435.888 362.993 444.242 346.31 456.184 333.609L462.869 326.5L460.453 331.5C458.419 335.712 452.632 357 453.521 357C453.68 357 456.076 353.945 458.844 350.211C464.587 342.464 480.619 326.622 489.5 319.918C504.841 308.338 522.321 299.405 542.5 292.835C552.409 289.609 572.062 285.047 580.028 284.125L587.5 283.259L579.711 283.13C552.031 282.669 506.48 293.874 484.5 306.552L478.5 310.012L484 304.92C495.544 294.232 515.668 282.424 535.5 274.702C551.749 268.376 578.694 261.096 616 252.954C626.489 250.665 658.555 241.082 669.5 236.966C704.4 223.839 728.249 208.894 751.534 185.56C758.153 178.927 765.091 171.363 766.953 168.752C768.814 166.14 770.512 164.179 770.727 164.393C770.941 164.608 769.148 168.997 766.741 174.146C753.528 202.423 727.158 229.223 697.775 244.24C692.674 246.847 689.007 248.984 689.627 248.99C690.246 248.995 696.771 246.943 704.127 244.429C717.943 239.706 731.437 233.389 741 227.167C759.439 215.168 779.622 194.756 790.549 177.052C792.603 173.723 794.43 171 794.608 171C794.787 171 793.339 175.613 791.391 181.25C787.111 193.639 779.845 207.585 772.308 217.878C764.987 227.876 750.397 242.153 740.644 248.862C733.258 253.942 714.593 263.766 707 266.567C701.982 268.419 704.798 268.277 719 265.962C749.534 260.984 771.191 253.318 789.568 240.982C806.777 229.43 825.768 207.337 835.971 187C843.52 171.953 850.069 149.396 851.682 132.888L852.404 125.5L853.275 130.5C853.753 133.25 854.212 144.05 854.295 154.5ZM567.5 303.59C539.838 307.883 520.17 316.726 505.5 331.467C501.65 335.335 497.21 340.908 495.633 343.85C492.928 348.898 489.642 358.975 490.44 359.773C490.915 360.248 500.775 356.081 503.953 354.062C505.301 353.206 510.701 349 515.953 344.716C534.065 329.94 539.171 328.872 565.587 334.339C590.093 339.41 601.621 340.542 614.25 339.119C624.673 337.945 632.378 336.286 628.5 336.051C627.4 335.984 623.575 335.065 620 334.008L613.5 332.086L622.5 332.565C627.45 332.828 634.875 332.697 639 332.272L646.5 331.5L640.167 329.166C636.684 327.882 633.984 326.703 634.167 326.544C634.866 325.939 654.843 329.109 662.083 330.974C666.254 332.048 673.229 334.253 677.583 335.873C681.937 337.492 686.4 339.124 687.5 339.498C690.737 340.598 676.089 331.127 668.943 327.498C660.091 323.004 638.556 313.976 633 312.431C625.097 310.232 632.466 310.88 645.593 313.538C652.488 314.934 660.607 317.003 663.634 318.136C672.323 321.387 670.907 319.706 660.774 314.74C648.335 308.645 637.32 305.333 623.438 303.513C609.123 301.636 579.83 301.677 567.5 303.59ZM536.455 351.455C531.282 356.627 535.02 365 542.5 365C547.825 365 551.436 361.09 550.649 356.177C549.525 349.15 541.447 346.462 536.455 351.455ZM619 351.629C607.605 353.347 594.917 356.489 590.624 358.656C586.04 360.97 577 367.9 577 369.1C577 369.67 578.237 369.279 579.75 368.232C585.622 364.167 585.193 364.924 576 374.863C570.775 380.512 566.346 385.567 566.157 386.096C565.719 387.324 576.772 382.463 579.466 380.242C580.585 379.32 579.025 381.163 576 384.339C565.071 395.81 551.558 399.96 531.85 397.896C517.195 396.361 504.171 397.139 496.5 400.006C490.169 402.372 474.018 411.068 474.007 412.116C473.998 412.949 486.446 418.464 493.114 420.58C500.496 422.923 500.904 423.614 495.293 424.279C489.855 424.923 481.102 428.002 476.25 430.977C471.03 434.178 471.796 436.759 480.75 446.149C485.338 450.961 487.684 454.052 486.5 453.726C483.095 452.788 477 451.888 477 452.323C477 452.551 482.372 455.149 488.939 458.097C495.505 461.044 500.733 463.601 500.556 463.777C500.38 463.954 497.191 463.392 493.471 462.529C489.75 461.667 486.574 461.092 486.413 461.253C486.252 461.414 494.306 465.777 504.31 470.948C528.442 483.422 552.347 497.138 569.496 508.35C585.672 518.925 616 539.912 616 540.53C616 541.024 613.534 540.085 606 536.721C602.975 535.371 595.775 532.795 590 530.998C584.225 529.201 578.825 527.496 578 527.209C577.175 526.921 582.509 531.266 589.852 536.862C624.322 563.132 645.731 584.831 662.994 611L669.261 620.5L668.578 614C666.208 591.467 653.688 553.582 643.918 539.38C642.313 537.048 641 534.828 641 534.446C641 532.878 664.727 555.381 673.75 565.507C676.638 568.748 679 571.074 679 570.677C679 570.28 677.141 566.253 674.869 561.728C666.491 545.042 653.309 526.338 640.602 513.104L633.5 505.709L643.5 510.971C655.968 517.532 671.398 528.07 680.276 536.087L687.052 542.206L685.053 537.135C678.789 521.242 667.932 503.958 654.924 489.167L646.716 479.835L655.108 484.025C671.088 492.004 685.661 503.041 693.366 513L696.074 516.5L694.123 511.5C689.95 500.808 685.037 491.16 679.741 483.259C675.273 476.594 674.733 475.386 676.916 476.94C682.62 481.002 694.023 494.164 697.91 501.172C700.145 505.202 701.98 508.198 701.987 507.83C702.024 505.946 695.291 488.51 691.882 481.663C685.314 468.468 672.977 453.894 658.5 442.226L654.5 439.002L662 442.118C677.36 448.498 691.703 458.929 697.079 467.628C701.15 474.215 700.2 470.112 695.854 462.335C690.462 452.686 678.552 440.384 667.5 433.048C663.1 430.127 660.4 427.996 661.5 428.313C662.6 428.63 667.478 429.815 672.34 430.947C681.351 433.045 694.623 437.9 698.837 440.64C700.122 441.476 701.375 441.959 701.621 441.712C701.867 441.466 699.428 437.718 696.201 433.383C686.642 420.539 673.235 408.953 658.5 400.802C652.007 397.21 653.754 397.288 665.732 401.125C677.01 404.738 683.909 407.757 689.367 411.469C691.494 412.915 693.421 413.912 693.649 413.684C693.877 413.456 690.732 409.861 686.659 405.696C679.584 398.458 668.13 390 665.404 390C664.697 390 663.864 389.589 663.554 389.088C662.764 387.809 673.572 390.462 679.031 392.887C681.522 393.994 685.486 396.294 687.838 397.998L692.115 401.096L689.807 396.974C686.194 390.52 675.904 378.892 668.811 373.248C661.924 367.767 649.37 360.664 644.632 359.567C638.86 358.23 642.742 358.22 651.651 359.548C659.571 360.729 664.568 362.1 673.5 365.541C677.64 367.137 667.221 359.653 660.754 356.386C648.165 350.027 637.603 348.824 619 351.629ZM556.06 374.427C555.387 375.239 552.534 377.05 549.721 378.452C541.887 382.355 533.52 381.696 528.25 376.759C525.619 374.295 525.408 374.955 527.521 379.04C528.357 380.657 530.814 382.885 532.981 383.99C541.539 388.356 552.359 385.009 556.676 376.659C558.317 373.487 557.949 372.152 556.06 374.427ZM445.5 431.402C427.118 437.991 420.718 440.641 405 448.166C389.026 455.815 377.627 461.961 378.254 462.588C379.708 464.041 460 429.583 460 427.506C460 426.459 457.166 427.22 445.5 431.402ZM402.708 645.523C347.135 652.247 308.86 674.672 281.564 716.5C266.793 739.134 264.205 742.809 256.899 751.52C249.78 760.008 240.929 768.002 232.235 773.795C229.339 775.724 227.156 777.489 227.384 777.717C227.888 778.222 238.002 773.196 247.5 767.721C260.671 760.13 273.508 749.535 295 728.522C324.972 699.217 332.625 692.848 351 681.924C368.402 671.577 390.923 661.601 412.5 654.681C423.738 651.076 445.105 645.475 450.5 644.72C458.438 643.608 412.097 644.387 402.708 645.523ZM455.06 658.527C450.968 659.267 445.568 660.637 443.06 661.57C437.776 663.537 418.754 673.087 419.211 673.544C419.38 673.713 421.99 673.022 425.009 672.007C428.029 670.992 438.15 668.536 447.5 666.548C456.85 664.561 469.675 661.627 476 660.028L487.5 657.121L475 657.151C468.125 657.167 459.152 657.786 455.06 658.527ZM533.5 670.111C528.417 671.701 501.518 674.975 480.5 676.562C427.99 680.525 407.222 686.8 380.378 706.812C370.403 714.248 352.408 732.847 339.558 749.001C312.983 782.408 300.396 795.198 281.924 807.564C266.224 818.074 242.256 828.281 222.5 832.87C218.519 833.795 218.528 833.8 224.5 833.898C234.182 834.058 256.347 831.111 268.451 828.054C290.675 822.441 313.088 811.518 328.867 798.609C337.604 791.461 350.225 778.304 361.008 765.104C372.551 750.972 384.656 737.027 388.006 734C398.056 724.921 403.827 720.111 406 719.003L408.5 717.729L406.393 720.114C397.577 730.097 389.673 746.226 380.532 772.89C376.876 783.554 372.33 795.367 370.43 799.14C368.529 802.913 367.116 806 367.288 806C367.954 806 378.843 792.202 382.677 786.5C384.896 783.2 391.57 772.4 397.509 762.5C403.447 752.6 410.357 741.8 412.865 738.5C419.776 729.403 432.969 716.743 441.173 711.335C453.632 703.123 457.693 701.423 492.054 690.029C512.948 683.101 528.852 676.171 534.5 671.535C537.818 668.811 537.789 668.769 533.5 670.111ZM517 713.619C491.241 719.237 472.955 728.379 457.019 743.604C443.603 756.422 435.124 769.3 425.154 792C415.797 813.306 411.389 820.447 400.547 831.871C390.635 842.313 377.009 850.679 362.72 855.097L356.5 857.02L366 856.531C381.328 855.742 402.396 849.822 415 842.763C433.987 832.13 446.301 818.492 456.322 797C458.245 792.875 462.116 784.59 464.925 778.589C475.274 756.476 490.08 739.025 512.5 722.517C519.1 717.657 524.928 713.303 525.45 712.841C526.709 711.726 524.919 711.891 517 713.619ZM567.598 721.311C557.477 735.493 556.851 746.788 565.082 766.671C572.224 783.922 573.216 787.705 572.73 795.824C572.236 804.066 572.99 803.659 576.105 794C579.281 784.155 578.967 771.864 575.117 755.243C571.522 739.726 570.455 728.761 571.76 720.75C572.276 717.587 572.563 715 572.399 715C572.235 715 570.075 717.84 567.598 721.311ZM539.209 729.019C523.61 739.436 516.782 751.41 511.003 778.485C509.26 786.652 506.666 796.522 505.239 800.417C499.712 815.505 488.608 829.86 476.127 838.054C466.727 844.225 467.891 844.367 478.995 838.406C512.129 820.618 528.579 797.442 534.998 759.5C537.549 744.423 539.394 737.934 543.078 731.079C544.681 728.098 545.835 725.501 545.642 725.308C545.449 725.116 542.554 726.785 539.209 729.019ZM645.206 740C642.535 755.48 631.501 783.396 621.385 800.272C611.086 817.451 593.668 836.718 580.117 845.921C567.122 854.745 549.743 861.228 535 862.749L528.5 863.42L533 864.136C543.762 865.848 561.699 864.673 574.74 861.403C597.227 855.763 617.081 841.683 629.576 822.514C642.185 803.171 647.434 780.465 646.802 748L646.5 732.5L645.206 740Z" fill="#00B8FF"/>
<path fill-rule="evenodd" clip-rule="evenodd" d="M0 512V1024H512H1024V512V0H512H0V512ZM854.37 153.5C854.513 176.584 853.554 183.785 847.867 202.356C839.591 229.38 820.701 254.22 797 269.245C779.142 280.566 756.686 287.824 727.517 291.704L721.534 292.5L726.989 296L732.445 299.5L748.972 299.83C796.481 300.78 833.125 291.031 864 269.229C874.616 261.733 896.128 240.766 902.951 231.266C905.399 227.857 907.555 225.222 907.743 225.409C908.46 226.127 898.104 248.826 894.03 255.468C874.361 287.526 838.268 313.74 800.5 323.395C788.778 326.391 774.249 328.994 769.119 329.015C762.328 329.044 762.468 330.026 770.62 339.541C812.205 388.08 838.053 446.173 846.908 511C854.084 563.527 846.178 627.116 826.281 676.913C819.249 694.512 815.196 702.702 802.73 724.5C797.663 733.36 787.838 748.172 787.351 747.684C787.148 747.481 788.089 740.607 789.443 732.407C793.5 707.833 794.545 690.728 793.185 671.165C789.784 622.247 778.095 584.973 746.065 520.915C737.379 503.543 728.427 484.643 726.171 478.915L722.07 468.5L722.649 474.5C724.59 494.614 730.336 518.743 741.462 553.5C756.484 600.43 760.869 616.442 764.463 637.499C769.464 666.792 770.175 696.912 766.502 723.804C759.981 771.555 739.174 813.719 707.047 844.293C686.51 863.836 664.843 876.807 638.188 885.515C627.514 889.002 622.97 889.65 628.164 886.946C635.348 883.206 652.935 869.179 662.5 859.561C686.282 835.647 699.213 808.227 702.947 773.789C703.526 768.449 703.968 762.149 703.929 759.789C703.867 756.02 703.525 756.712 701.105 765.5C697.572 778.334 695.087 784.882 689.461 796.186C679.772 815.655 666.761 833.183 649.881 849.507C618.777 879.588 580.031 898.466 535 905.481C520.427 907.751 488.552 908.559 471.954 907.079C438.647 904.11 416.347 899.309 362.668 883.55C325.988 872.781 309.06 868.426 287 864.083C237.735 854.384 190.141 854.05 146.003 863.094C140.776 864.165 135.704 865.29 134.73 865.594C133.174 866.08 133.27 865.442 135.521 860.324C138.998 852.416 149.707 833.208 159.266 817.732C186.773 773.202 232.895 722.23 273.842 691.11C305.748 666.861 333.673 652.637 384 634.998C425.496 620.455 444.035 612.101 463.5 599.175C481.854 586.986 501.942 564.331 506.652 550.507C507.497 548.028 508.439 546 508.745 546C509.799 546 508.028 565.507 506.43 571.5C505.55 574.8 503.127 580.763 501.046 584.75C498.964 588.737 497.617 592 498.053 592C499.462 592 508.077 581.652 511.203 576.204C512.875 573.292 514.444 571.11 514.69 571.356C515.411 572.078 509.17 592.744 506.85 597.315C505.682 599.617 503.406 603.525 501.792 606L498.857 610.5L503.466 605.612C509.06 599.679 515.695 588.74 518.074 581.526C524.261 562.774 522.22 537.643 512.943 518.327C507.078 506.116 497.88 495.459 485.752 486.824L482.527 484.527L484.796 487.713C495.364 502.554 495.54 520.301 485.317 540.202C479.681 551.175 473.313 559.585 463.891 568.5C445.968 585.459 430.577 593.536 383.763 610.547C363.522 617.902 336.408 628.281 331 630.743C286.539 650.988 256.711 671.018 222.029 703.921C217.37 708.341 213.24 711.63 212.852 711.229C212.464 710.828 210.142 706.45 207.694 701.5C178.724 642.934 168.214 581.368 175.572 513.333C183.491 440.114 219.234 367.648 274.922 311.908C301.765 285.041 325.963 267.815 360.382 251.073C402.196 230.734 445.271 219.603 491.881 217.092C534.897 214.774 578.761 221.046 618.381 235.18C624.458 237.347 632.667 240.469 636.625 242.116L643.821 245.112L651.16 242.901C699.917 228.215 739.43 202.948 765.95 169.5C772.879 160.762 772.972 161.705 766.55 175.514C760.531 188.454 753.136 198.689 739.869 212.442C727.246 225.527 714.05 235.788 700.265 243.236C695.444 245.841 691.787 247.978 692.139 247.986C694.127 248.03 717.783 239.257 725 235.8C749.905 223.869 778.805 197.226 792.391 173.671C793.923 171.016 795.328 168.995 795.514 169.181C796.042 169.709 789.557 187.815 786.144 195.344C780.389 208.034 770.483 221.802 758.64 233.568C745.77 246.355 736.877 252.654 719.883 261.017C713.197 264.308 708.576 266.997 709.613 266.993C712.31 266.984 732.25 263.471 740.396 261.57C751.169 259.056 764.622 254.149 775 248.948C808.279 232.268 833.596 200.954 845.375 161.902C848.511 151.502 851.816 134.069 852.11 126.372C852.197 124.093 852.428 124.429 853.229 128C853.785 130.475 854.298 141.95 854.37 153.5ZM582 257.608C526.751 266.12 478.292 286.893 451.739 313.446C443.788 321.397 435.149 334.11 431.995 342.5C429.116 350.157 428.264 365.277 430.017 377.601L431.282 386.5L433.581 376.259C436.233 364.444 439.56 356.35 445.782 346.572C450.012 339.923 461.768 326.03 463.18 326.01C463.553 326.004 462.764 327.959 461.426 330.353C459.236 334.272 456.358 343.819 454.647 352.84C454.058 355.947 454.341 355.739 458.723 349.84C469.088 335.883 488.124 319.32 505.797 308.881C524.907 297.594 551.613 288.321 575.928 284.53C586.819 282.832 580.997 282.589 565 284.074C535.07 286.853 493.787 299.298 480.251 309.622C474.542 313.976 475.634 311.613 481.741 306.397C496.922 293.432 508.562 286.034 525.351 278.681C540.632 271.989 553.91 267.718 580.215 261.033C605.493 254.609 605.844 253.934 582 257.608ZM570 303.547C550.857 306.233 534.828 311.3 522 318.723C513.06 323.896 498.063 338.908 494.751 346C491.683 352.567 490.266 359 491.886 359C494.954 359 506.447 352.323 513.049 346.706C533.33 329.45 539.837 328.115 570 335.019C586.405 338.775 609.615 340.099 622 337.987L629.5 336.708L621 334.604L612.5 332.5L629 332L645.5 331.5L639.217 329.116C635.762 327.805 633.107 326.56 633.317 326.35C634.027 325.64 655.776 329.04 663.555 331.077C667.802 332.19 675.046 334.62 679.653 336.477C684.259 338.335 687.797 339.48 687.514 339.022C684.931 334.843 636.368 312 630.066 312C628.994 312 627.844 311.557 627.509 311.015C626.84 309.932 627.043 309.957 643.589 312.976C649.688 314.088 656.867 315.658 659.543 316.463C666.908 318.68 666.187 317.417 657.909 313.604C640.235 305.465 627.435 303.001 600 302.459C586.332 302.189 577.359 302.514 570 303.547ZM536.923 351.923C533.501 355.345 533.192 358.755 536.028 361.799C538.713 364.682 542.376 365.501 545.955 364.019C551.437 361.748 551.938 354.171 546.841 350.601C543.439 348.218 540.196 348.651 536.923 351.923ZM625 351.032C615.694 352.11 599.912 355.378 594.239 357.4C589.401 359.125 582.466 363.665 579.5 367.049C577.673 369.134 577.844 369.101 581.482 366.666C587.761 362.462 587.444 363.484 580.216 370.75C576.522 374.462 572.007 379.403 570.182 381.73L566.864 385.959L571.113 384.46C573.451 383.635 576.969 381.741 578.931 380.251L582.5 377.541L579.21 381.714C574.713 387.42 567.555 392.476 559.363 395.733C552.869 398.315 551.801 398.44 539.5 398.061C510.639 397.172 504.037 397.505 496.804 400.209C489.921 402.783 475 410.852 475 412.001C475 413.024 483.294 416.894 492.061 419.963C501.263 423.183 502.537 423.995 498.417 424.012C492.586 424.036 479.189 428.762 474.629 432.403C471.6 434.822 473.279 438.06 482.239 447.075C486.783 451.646 489.744 455.101 488.821 454.752C487.898 454.403 485.423 453.843 483.321 453.507C479.571 452.908 479.547 452.925 482 454.387C483.375 455.207 488.464 457.584 493.309 459.669C498.154 461.754 501.706 463.598 501.201 463.766C500.696 463.935 497.297 463.458 493.646 462.707C489.996 461.957 487.122 461.455 487.259 461.592C487.396 461.73 491.557 463.956 496.504 466.539C530.277 484.171 539.09 489.036 554.5 498.551C576.612 512.205 618.516 540.818 617.657 541.677C617.405 541.928 614.823 540.931 611.919 539.459C606.783 536.857 580.013 527.653 579.391 528.276C579.22 528.447 584.799 532.891 591.79 538.15C617.128 557.215 634.492 573.575 650.117 593.106C658.178 603.183 662.795 609.69 666.593 616.333C669.405 621.251 669.481 620.517 667.454 608.014C663.419 583.136 652.43 552.083 642.546 537.633C641.091 535.506 640.056 533.611 640.244 533.422C640.924 532.743 666.622 556.776 671.942 563.066C674.934 566.605 677.793 569.95 678.294 570.5C678.794 571.05 676.858 566.795 673.99 561.045C665.412 543.846 649.136 521.013 638.081 510.672C635.286 508.059 633 505.674 633 505.374C633 504.27 652.781 515.463 662 521.783C671.203 528.092 682.225 536.931 684.718 540C686.85 542.625 686.115 540.301 681.576 530.063C674.939 515.093 664.645 499.867 652.629 487.246C649.354 483.806 646.89 480.777 647.153 480.514C647.997 479.669 661.678 486.719 670.725 492.661C675.551 495.83 682.953 501.866 687.173 506.074C691.393 510.282 694.475 512.75 694.022 511.559C690.952 503.483 683.282 488.767 678.604 481.976C672.731 473.451 673.519 473.417 682.398 481.815C689.721 488.741 695.32 495.575 697.912 500.75C701.096 507.108 701.277 505.893 698.358 497.75C690.295 475.258 679.626 459.921 662.032 445.526C658.132 442.336 655.153 439.514 655.411 439.256C655.669 438.998 661.512 441.524 668.396 444.871C679.603 450.32 681.854 451.878 689.939 459.78L698.968 468.605L695.851 463.053C690.487 453.499 683.27 445.387 673.716 438.173C668.647 434.345 663.038 430.479 661.25 429.581C659.462 428.683 658 427.792 658 427.602C658 426.986 674.258 430.978 682.411 433.595C686.762 434.991 692.982 437.477 696.233 439.117L702.143 442.101L697.877 435.801C689.096 422.834 672.548 408.559 656.389 400.011C651.25 397.293 650.946 396.981 654 397.558C661.8 399.032 676.996 404.441 685 408.592L693.5 413.001L684.215 403.997C678.023 397.992 672.692 393.844 668.215 391.545C660.749 387.713 661.255 387.234 670.296 389.577C677.189 391.363 682.89 394.025 688 397.844L691.5 400.46L689.589 397.48C683.272 387.626 679.922 383.701 670.63 375.26C664.551 369.738 655.396 364.175 646.083 360.344C643.012 359.081 641.175 358.039 642 358.028C645.786 357.978 662.097 361.133 667.5 362.961L673.5 364.99L671 362.972C666.607 359.425 656.666 354.221 651.284 352.65C644.268 350.603 634.103 349.977 625 351.032ZM429.5 403.2C428.4 403.827 423.508 408.085 418.628 412.663C407.006 423.566 394.715 432.281 371.5 446.08C340.114 464.737 332.87 471.53 327.5 487.349C325.899 492.064 324.4 501 325.209 501C325.474 501 327.966 497.288 330.746 492.75C340.532 476.78 350.778 468.681 384.5 450.264C412.669 434.88 430.801 422.779 437.358 414.987C440.222 411.582 440.981 405.381 438.8 403.2C437.295 401.695 432.142 401.695 429.5 403.2ZM443.5 432.423C421.593 440.315 395.248 452.186 383.5 459.461C378.164 462.765 379.188 462.626 389.664 458.627C411.564 450.267 460.267 428.213 457 428.136C456.175 428.117 450.1 430.046 443.5 432.423ZM408.5 645.086C369.234 649.113 337.387 661.124 312.326 681.357C300.595 690.829 293.17 699.511 280.992 718C260.432 749.212 251.252 760.264 237.701 770.121C227.421 777.599 227.438 777.732 238 772.492C257.589 762.772 269.49 753.433 298.5 725.015C310.6 713.163 324.325 700.413 329 696.684C354.432 676.394 393.595 658.386 434.589 648.131C441.14 646.493 447.625 644.954 449 644.712C453.561 643.91 416.647 644.251 408.5 645.086ZM459.5 658.136C455.65 658.621 449.575 659.94 446 661.068C439.578 663.093 422.606 670.939 423.252 671.585C423.435 671.768 426.16 671.246 429.306 670.425C432.452 669.603 442.333 667.396 451.263 665.521C460.194 663.645 471.55 660.994 476.5 659.629L485.5 657.147L476 657.2C470.775 657.229 463.35 657.65 459.5 658.136ZM645.078 742.25C642.388 756.477 631.663 783.526 622.775 798.5C607.018 825.048 586.302 845.187 564.654 855.003C557.095 858.43 540.438 862.914 534.5 863.121C531.76 863.216 532.862 863.546 538 864.168C553.188 866.009 575.514 862.361 590.299 855.623C619.863 842.151 638.256 817.345 644.521 782.496C646.047 774.012 647.891 736 646.778 736C646.493 736 645.728 738.813 645.078 742.25Z" fill="#FDFFFE"/>
</svg>
